<mxfile host="app.diagrams.net" modified="2021-05-18T09:59:37.503Z" agent="5.0 (Macintosh; Intel Mac OS X 10_15_7) AppleWebKit/537.36 (KHTML, like Gecko) Chrome/90.0.4430.212 Safari/537.36" etag="LkkltxFMYFWKGYMxMoBP" version="14.6.12" type="github">
  <diagram id="C5RBs43oDa-KdzZeNtuy" name="Page-1">
    <mxGraphModel dx="6384" dy="3045" grid="1" gridSize="10" guides="1" tooltips="1" connect="1" arrows="1" fold="1" page="1" pageScale="1" pageWidth="827" pageHeight="1169" math="0" shadow="0">
      <root>
        <mxCell id="WIyWlLk6GJQsqaUBKTNV-0" />
        <mxCell id="WIyWlLk6GJQsqaUBKTNV-1" parent="WIyWlLk6GJQsqaUBKTNV-0" />
        <mxCell id="ZeMPfmyQv6SLFDz6TmZ5-0" value="" style="rounded=1;arcSize=10;dashed=1;strokeColor=#666666;fillColor=#f5f5f5;dashPattern=8 3 1 3;strokeWidth=2;fontSize=18;fontColor=#333333;" vertex="1" parent="WIyWlLk6GJQsqaUBKTNV-1">
          <mxGeometry x="480" y="1284" width="460" height="470" as="geometry" />
        </mxCell>
        <mxCell id="ZeMPfmyQv6SLFDz6TmZ5-1" value="" style="rounded=1;arcSize=10;dashed=1;strokeColor=#666666;fillColor=#f5f5f5;dashPattern=8 3 1 3;strokeWidth=2;fontSize=18;fontColor=#333333;" vertex="1" parent="WIyWlLk6GJQsqaUBKTNV-1">
          <mxGeometry x="-610" y="450" width="420" height="310" as="geometry" />
        </mxCell>
        <mxCell id="ZeMPfmyQv6SLFDz6TmZ5-2" value="" style="edgeStyle=orthogonalEdgeStyle;rounded=0;orthogonalLoop=1;jettySize=auto;html=1;" edge="1" parent="WIyWlLk6GJQsqaUBKTNV-1" source="ZeMPfmyQv6SLFDz6TmZ5-7" target="ZeMPfmyQv6SLFDz6TmZ5-33">
          <mxGeometry relative="1" as="geometry" />
        </mxCell>
        <mxCell id="ZeMPfmyQv6SLFDz6TmZ5-3" value="" style="edgeStyle=orthogonalEdgeStyle;rounded=0;orthogonalLoop=1;jettySize=auto;html=1;" edge="1" parent="WIyWlLk6GJQsqaUBKTNV-1" source="ZeMPfmyQv6SLFDz6TmZ5-8" target="ZeMPfmyQv6SLFDz6TmZ5-34">
          <mxGeometry relative="1" as="geometry" />
        </mxCell>
        <mxCell id="ZeMPfmyQv6SLFDz6TmZ5-4" value="" style="rounded=1;arcSize=10;dashed=1;strokeColor=#666666;fillColor=#f5f5f5;dashPattern=8 3 1 3;strokeWidth=2;fontSize=18;fontColor=#333333;" vertex="1" parent="WIyWlLk6GJQsqaUBKTNV-1">
          <mxGeometry x="480" y="1284" width="460" height="470" as="geometry" />
        </mxCell>
        <mxCell id="ZeMPfmyQv6SLFDz6TmZ5-5" value="" style="edgeStyle=orthogonalEdgeStyle;rounded=0;orthogonalLoop=1;jettySize=auto;html=1;fontSize=18;" edge="1" parent="WIyWlLk6GJQsqaUBKTNV-1" source="ZeMPfmyQv6SLFDz6TmZ5-7" target="ZeMPfmyQv6SLFDz6TmZ5-72">
          <mxGeometry relative="1" as="geometry" />
        </mxCell>
        <mxCell id="ZeMPfmyQv6SLFDz6TmZ5-6" value="" style="edgeStyle=orthogonalEdgeStyle;rounded=0;orthogonalLoop=1;jettySize=auto;html=1;fontSize=18;" edge="1" parent="WIyWlLk6GJQsqaUBKTNV-1" source="ZeMPfmyQv6SLFDz6TmZ5-8" target="ZeMPfmyQv6SLFDz6TmZ5-73">
          <mxGeometry relative="1" as="geometry" />
        </mxCell>
        <mxCell id="ZeMPfmyQv6SLFDz6TmZ5-7" value="&lt;font style=&quot;font-size: 16px&quot;&gt;docData.js&lt;/font&gt;" style="ellipse;whiteSpace=wrap;html=1;fillColor=#ffe6cc;strokeColor=#d79b00;" vertex="1" parent="WIyWlLk6GJQsqaUBKTNV-1">
          <mxGeometry x="578.5" y="428" width="120" height="80" as="geometry" />
        </mxCell>
        <mxCell id="ZeMPfmyQv6SLFDz6TmZ5-8" value="&lt;font style=&quot;font-size: 16px&quot;&gt;docData.js&lt;/font&gt;" style="ellipse;whiteSpace=wrap;html=1;fillColor=#ffe6cc;strokeColor=#d79b00;" vertex="1" parent="WIyWlLk6GJQsqaUBKTNV-1">
          <mxGeometry x="578.5" y="428" width="120" height="80" as="geometry" />
        </mxCell>
        <mxCell id="ZeMPfmyQv6SLFDz6TmZ5-9" value="&lt;font style=&quot;font-size: 16px&quot;&gt;文字&lt;br&gt;TextConfig&lt;/font&gt;" style="rounded=1;whiteSpace=wrap;html=1;fillColor=#f5f5f5;strokeColor=#666666;fontColor=#333333;" vertex="1" parent="WIyWlLk6GJQsqaUBKTNV-1">
          <mxGeometry x="220" y="287" width="120" height="60" as="geometry" />
        </mxCell>
        <mxCell id="ZeMPfmyQv6SLFDz6TmZ5-10" value="&lt;font style=&quot;font-size: 16px&quot;&gt;文字&lt;br&gt;TextConfig&lt;/font&gt;" style="rounded=1;whiteSpace=wrap;html=1;fillColor=#f5f5f5;strokeColor=#666666;fontColor=#333333;" vertex="1" parent="WIyWlLk6GJQsqaUBKTNV-1">
          <mxGeometry x="220" y="287" width="120" height="60" as="geometry" />
        </mxCell>
        <mxCell id="ZeMPfmyQv6SLFDz6TmZ5-11" value="&lt;font style=&quot;font-size: 16px&quot;&gt;图片ImageConfig&lt;/font&gt;" style="rounded=1;whiteSpace=wrap;html=1;fillColor=#f5f5f5;strokeColor=#666666;fontColor=#333333;" vertex="1" parent="WIyWlLk6GJQsqaUBKTNV-1">
          <mxGeometry x="410" y="288" width="116" height="60" as="geometry" />
        </mxCell>
        <mxCell id="ZeMPfmyQv6SLFDz6TmZ5-12" value="&lt;font style=&quot;font-size: 16px&quot;&gt;图片ImageConfig&lt;/font&gt;" style="rounded=1;whiteSpace=wrap;html=1;fillColor=#f5f5f5;strokeColor=#666666;fontColor=#333333;" vertex="1" parent="WIyWlLk6GJQsqaUBKTNV-1">
          <mxGeometry x="410" y="288" width="116" height="60" as="geometry" />
        </mxCell>
        <mxCell id="ZeMPfmyQv6SLFDz6TmZ5-13" value="" style="edgeStyle=orthogonalEdgeStyle;rounded=0;orthogonalLoop=1;jettySize=auto;html=1;" edge="1" parent="WIyWlLk6GJQsqaUBKTNV-1" source="ZeMPfmyQv6SLFDz6TmZ5-15" target="ZeMPfmyQv6SLFDz6TmZ5-7">
          <mxGeometry relative="1" as="geometry" />
        </mxCell>
        <mxCell id="ZeMPfmyQv6SLFDz6TmZ5-14" value="" style="edgeStyle=orthogonalEdgeStyle;rounded=0;orthogonalLoop=1;jettySize=auto;html=1;" edge="1" parent="WIyWlLk6GJQsqaUBKTNV-1" source="ZeMPfmyQv6SLFDz6TmZ5-16" target="ZeMPfmyQv6SLFDz6TmZ5-8">
          <mxGeometry relative="1" as="geometry" />
        </mxCell>
        <mxCell id="ZeMPfmyQv6SLFDz6TmZ5-15" value="&lt;font style=&quot;font-size: 16px&quot;&gt;按钮ButtonsConfig&lt;/font&gt;" style="rounded=1;whiteSpace=wrap;html=1;fillColor=#f5f5f5;strokeColor=#666666;fontColor=#333333;" vertex="1" parent="WIyWlLk6GJQsqaUBKTNV-1">
          <mxGeometry x="576" y="288" width="125" height="60" as="geometry" />
        </mxCell>
        <mxCell id="ZeMPfmyQv6SLFDz6TmZ5-16" value="&lt;font style=&quot;font-size: 16px&quot;&gt;按钮ButtonsConfig&lt;/font&gt;" style="rounded=1;whiteSpace=wrap;html=1;fillColor=#f5f5f5;strokeColor=#666666;fontColor=#333333;" vertex="1" parent="WIyWlLk6GJQsqaUBKTNV-1">
          <mxGeometry x="576" y="288" width="125" height="60" as="geometry" />
        </mxCell>
        <mxCell id="ZeMPfmyQv6SLFDz6TmZ5-17" value="&lt;font style=&quot;font-size: 16px&quot;&gt;表单&lt;br&gt;FormsConfig&lt;/font&gt;" style="rounded=1;whiteSpace=wrap;html=1;fillColor=#f5f5f5;strokeColor=#666666;fontColor=#333333;" vertex="1" parent="WIyWlLk6GJQsqaUBKTNV-1">
          <mxGeometry x="738" y="287" width="135" height="60" as="geometry" />
        </mxCell>
        <mxCell id="ZeMPfmyQv6SLFDz6TmZ5-18" value="&lt;font style=&quot;font-size: 16px&quot;&gt;表单&lt;br&gt;FormsConfig&lt;/font&gt;" style="rounded=1;whiteSpace=wrap;html=1;fillColor=#f5f5f5;strokeColor=#666666;fontColor=#333333;" vertex="1" parent="WIyWlLk6GJQsqaUBKTNV-1">
          <mxGeometry x="738" y="287" width="135" height="60" as="geometry" />
        </mxCell>
        <mxCell id="ZeMPfmyQv6SLFDz6TmZ5-19" value="&lt;font style=&quot;font-size: 16px&quot;&gt;发券CouponBarConfig&lt;/font&gt;" style="rounded=1;whiteSpace=wrap;html=1;fillColor=#f5f5f5;strokeColor=#666666;fontColor=#333333;" vertex="1" parent="WIyWlLk6GJQsqaUBKTNV-1">
          <mxGeometry x="916" y="287" width="150" height="60" as="geometry" />
        </mxCell>
        <mxCell id="ZeMPfmyQv6SLFDz6TmZ5-20" value="&lt;font style=&quot;font-size: 16px&quot;&gt;发券CouponBarConfig&lt;/font&gt;" style="rounded=1;whiteSpace=wrap;html=1;fillColor=#f5f5f5;strokeColor=#666666;fontColor=#333333;" vertex="1" parent="WIyWlLk6GJQsqaUBKTNV-1">
          <mxGeometry x="916" y="287" width="150" height="60" as="geometry" />
        </mxCell>
        <mxCell id="ZeMPfmyQv6SLFDz6TmZ5-21" value="" style="edgeStyle=orthogonalEdgeStyle;rounded=0;orthogonalLoop=1;jettySize=auto;html=1;" edge="1" parent="WIyWlLk6GJQsqaUBKTNV-1" source="ZeMPfmyQv6SLFDz6TmZ5-23" target="ZeMPfmyQv6SLFDz6TmZ5-17">
          <mxGeometry relative="1" as="geometry" />
        </mxCell>
        <mxCell id="ZeMPfmyQv6SLFDz6TmZ5-22" value="" style="edgeStyle=orthogonalEdgeStyle;rounded=0;orthogonalLoop=1;jettySize=auto;html=1;" edge="1" parent="WIyWlLk6GJQsqaUBKTNV-1" source="ZeMPfmyQv6SLFDz6TmZ5-24" target="ZeMPfmyQv6SLFDz6TmZ5-18">
          <mxGeometry relative="1" as="geometry" />
        </mxCell>
        <mxCell id="ZeMPfmyQv6SLFDz6TmZ5-23" value="&lt;font style=&quot;font-size: 18px&quot;&gt;提交反馈feed_back_config&lt;/font&gt;" style="rounded=1;whiteSpace=wrap;html=1;" vertex="1" parent="WIyWlLk6GJQsqaUBKTNV-1">
          <mxGeometry x="720" y="177" width="170" height="50" as="geometry" />
        </mxCell>
        <mxCell id="ZeMPfmyQv6SLFDz6TmZ5-24" value="&lt;font style=&quot;font-size: 18px&quot;&gt;提交反馈feed_back_config&lt;/font&gt;" style="rounded=1;whiteSpace=wrap;html=1;" vertex="1" parent="WIyWlLk6GJQsqaUBKTNV-1">
          <mxGeometry x="720" y="177" width="170" height="50" as="geometry" />
        </mxCell>
        <mxCell id="ZeMPfmyQv6SLFDz6TmZ5-25" value="" style="shape=partialRectangle;whiteSpace=wrap;html=1;bottom=1;right=1;left=1;top=0;fillColor=none;routingCenterX=-0.5;" vertex="1" parent="WIyWlLk6GJQsqaUBKTNV-1">
          <mxGeometry x="270" y="348" width="720" height="30" as="geometry" />
        </mxCell>
        <mxCell id="ZeMPfmyQv6SLFDz6TmZ5-26" value="" style="shape=partialRectangle;whiteSpace=wrap;html=1;bottom=1;right=1;left=1;top=0;fillColor=none;routingCenterX=-0.5;" vertex="1" parent="WIyWlLk6GJQsqaUBKTNV-1">
          <mxGeometry x="270" y="348" width="720" height="30" as="geometry" />
        </mxCell>
        <mxCell id="ZeMPfmyQv6SLFDz6TmZ5-27" value="" style="line;strokeWidth=2;direction=south;html=1;" vertex="1" parent="WIyWlLk6GJQsqaUBKTNV-1">
          <mxGeometry x="463" y="348" width="10" height="30" as="geometry" />
        </mxCell>
        <mxCell id="ZeMPfmyQv6SLFDz6TmZ5-28" value="" style="line;strokeWidth=2;direction=south;html=1;" vertex="1" parent="WIyWlLk6GJQsqaUBKTNV-1">
          <mxGeometry x="463" y="348" width="10" height="30" as="geometry" />
        </mxCell>
        <mxCell id="ZeMPfmyQv6SLFDz6TmZ5-29" value="" style="line;strokeWidth=2;direction=south;html=1;" vertex="1" parent="WIyWlLk6GJQsqaUBKTNV-1">
          <mxGeometry x="501" y="348" width="619" height="30" as="geometry" />
        </mxCell>
        <mxCell id="ZeMPfmyQv6SLFDz6TmZ5-30" value="" style="line;strokeWidth=2;direction=south;html=1;" vertex="1" parent="WIyWlLk6GJQsqaUBKTNV-1">
          <mxGeometry x="501" y="348" width="619" height="30" as="geometry" />
        </mxCell>
        <mxCell id="ZeMPfmyQv6SLFDz6TmZ5-31" value="" style="edgeStyle=orthogonalEdgeStyle;rounded=0;orthogonalLoop=1;jettySize=auto;html=1;fontSize=18;" edge="1" parent="WIyWlLk6GJQsqaUBKTNV-1" source="ZeMPfmyQv6SLFDz6TmZ5-33">
          <mxGeometry relative="1" as="geometry">
            <mxPoint x="638.5" y="700" as="targetPoint" />
          </mxGeometry>
        </mxCell>
        <mxCell id="ZeMPfmyQv6SLFDz6TmZ5-32" value="" style="edgeStyle=orthogonalEdgeStyle;rounded=0;orthogonalLoop=1;jettySize=auto;html=1;fontSize=18;" edge="1" parent="WIyWlLk6GJQsqaUBKTNV-1" source="ZeMPfmyQv6SLFDz6TmZ5-34">
          <mxGeometry relative="1" as="geometry">
            <mxPoint x="638.5" y="700" as="targetPoint" />
          </mxGeometry>
        </mxCell>
        <mxCell id="ZeMPfmyQv6SLFDz6TmZ5-33" value="&lt;font style=&quot;font-size: 18px&quot;&gt;菜单Menu.vue&lt;/font&gt;" style="rounded=1;whiteSpace=wrap;html=1;fillColor=#dae8fc;strokeColor=#6c8ebf;" vertex="1" parent="WIyWlLk6GJQsqaUBKTNV-1">
          <mxGeometry x="553.5" y="570" width="170" height="60" as="geometry" />
        </mxCell>
        <mxCell id="ZeMPfmyQv6SLFDz6TmZ5-34" value="&lt;font style=&quot;font-size: 18px&quot;&gt;菜单Menu.vue&lt;/font&gt;" style="rounded=1;whiteSpace=wrap;html=1;fillColor=#dae8fc;strokeColor=#6c8ebf;" vertex="1" parent="WIyWlLk6GJQsqaUBKTNV-1">
          <mxGeometry x="553.5" y="570" width="170" height="60" as="geometry" />
        </mxCell>
        <mxCell id="ZeMPfmyQv6SLFDz6TmZ5-35" value="轮播图&#xa;Carousel" style="rounded=1;arcSize=10;dashed=1;strokeColor=#000000;fillColor=none;gradientColor=none;dashPattern=8 3 1 3;strokeWidth=2;fontSize=18;" vertex="1" parent="WIyWlLk6GJQsqaUBKTNV-1">
          <mxGeometry x="1126" y="265.5" width="164" height="103" as="geometry" />
        </mxCell>
        <mxCell id="ZeMPfmyQv6SLFDz6TmZ5-36" value="轮播图&#xa;Carousel" style="rounded=1;arcSize=10;dashed=1;strokeColor=#000000;fillColor=none;gradientColor=none;dashPattern=8 3 1 3;strokeWidth=2;fontSize=18;" vertex="1" parent="WIyWlLk6GJQsqaUBKTNV-1">
          <mxGeometry x="1126" y="265.5" width="164" height="103" as="geometry" />
        </mxCell>
        <mxCell id="ZeMPfmyQv6SLFDz6TmZ5-37" value="" style="edgeStyle=orthogonalEdgeStyle;rounded=0;orthogonalLoop=1;jettySize=auto;html=1;fontSize=18;" edge="1" parent="WIyWlLk6GJQsqaUBKTNV-1" source="ZeMPfmyQv6SLFDz6TmZ5-39" target="ZeMPfmyQv6SLFDz6TmZ5-45">
          <mxGeometry relative="1" as="geometry" />
        </mxCell>
        <mxCell id="ZeMPfmyQv6SLFDz6TmZ5-38" value="" style="edgeStyle=orthogonalEdgeStyle;rounded=0;orthogonalLoop=1;jettySize=auto;html=1;fontSize=18;" edge="1" parent="WIyWlLk6GJQsqaUBKTNV-1" source="ZeMPfmyQv6SLFDz6TmZ5-40" target="ZeMPfmyQv6SLFDz6TmZ5-46">
          <mxGeometry relative="1" as="geometry" />
        </mxCell>
        <mxCell id="ZeMPfmyQv6SLFDz6TmZ5-39" value="edit.vue初始化" style="shape=hexagon;perimeter=hexagonPerimeter2;whiteSpace=wrap;html=1;fixedSize=1;fontSize=18;fillColor=#d5e8d4;strokeColor=#82b366;" vertex="1" parent="WIyWlLk6GJQsqaUBKTNV-1">
          <mxGeometry x="557.75" y="910" width="161.5" height="80" as="geometry" />
        </mxCell>
        <mxCell id="ZeMPfmyQv6SLFDz6TmZ5-40" value="edit.vue初始化" style="shape=hexagon;perimeter=hexagonPerimeter2;whiteSpace=wrap;html=1;fixedSize=1;fontSize=18;fillColor=#d5e8d4;strokeColor=#82b366;" vertex="1" parent="WIyWlLk6GJQsqaUBKTNV-1">
          <mxGeometry x="557.75" y="910" width="161.5" height="80" as="geometry" />
        </mxCell>
        <mxCell id="ZeMPfmyQv6SLFDz6TmZ5-41" value="复制" style="shape=note;whiteSpace=wrap;html=1;backgroundOutline=1;darkOpacity=0.05;fontSize=18;" vertex="1" parent="WIyWlLk6GJQsqaUBKTNV-1">
          <mxGeometry x="696" y="1339" width="80" height="100" as="geometry" />
        </mxCell>
        <mxCell id="ZeMPfmyQv6SLFDz6TmZ5-42" value="复制" style="shape=note;whiteSpace=wrap;html=1;backgroundOutline=1;darkOpacity=0.05;fontSize=18;" vertex="1" parent="WIyWlLk6GJQsqaUBKTNV-1">
          <mxGeometry x="696" y="1339" width="80" height="100" as="geometry" />
        </mxCell>
        <mxCell id="ZeMPfmyQv6SLFDz6TmZ5-43" value="" style="edgeStyle=orthogonalEdgeStyle;rounded=0;orthogonalLoop=1;jettySize=auto;html=1;fontSize=18;" edge="1" parent="WIyWlLk6GJQsqaUBKTNV-1" source="ZeMPfmyQv6SLFDz6TmZ5-45" target="ZeMPfmyQv6SLFDz6TmZ5-0">
          <mxGeometry relative="1" as="geometry">
            <Array as="points">
              <mxPoint x="638" y="1222" />
              <mxPoint x="700" y="1222" />
            </Array>
          </mxGeometry>
        </mxCell>
        <mxCell id="ZeMPfmyQv6SLFDz6TmZ5-44" value="" style="edgeStyle=orthogonalEdgeStyle;rounded=0;orthogonalLoop=1;jettySize=auto;html=1;fontSize=18;" edge="1" parent="WIyWlLk6GJQsqaUBKTNV-1" source="ZeMPfmyQv6SLFDz6TmZ5-46" target="ZeMPfmyQv6SLFDz6TmZ5-4">
          <mxGeometry relative="1" as="geometry">
            <Array as="points">
              <mxPoint x="638" y="1222" />
              <mxPoint x="700" y="1222" />
            </Array>
          </mxGeometry>
        </mxCell>
        <mxCell id="ZeMPfmyQv6SLFDz6TmZ5-45" value="$route.query" style="shape=hexagon;perimeter=hexagonPerimeter2;whiteSpace=wrap;html=1;fixedSize=1;fontSize=18;" vertex="1" parent="WIyWlLk6GJQsqaUBKTNV-1">
          <mxGeometry x="557.75" y="1080" width="160" height="80" as="geometry" />
        </mxCell>
        <mxCell id="ZeMPfmyQv6SLFDz6TmZ5-46" value="$route.query" style="shape=hexagon;perimeter=hexagonPerimeter2;whiteSpace=wrap;html=1;fixedSize=1;fontSize=18;" vertex="1" parent="WIyWlLk6GJQsqaUBKTNV-1">
          <mxGeometry x="557.75" y="1080" width="160" height="80" as="geometry" />
        </mxCell>
        <mxCell id="ZeMPfmyQv6SLFDz6TmZ5-47" value="mode:copy" style="text;html=1;align=center;verticalAlign=middle;resizable=0;points=[];autosize=1;fontSize=18;" vertex="1" parent="WIyWlLk6GJQsqaUBKTNV-1">
          <mxGeometry x="570" y="1340" width="100" height="30" as="geometry" />
        </mxCell>
        <mxCell id="ZeMPfmyQv6SLFDz6TmZ5-48" value="mode:copy" style="text;html=1;align=center;verticalAlign=middle;resizable=0;points=[];autosize=1;fontSize=18;" vertex="1" parent="WIyWlLk6GJQsqaUBKTNV-1">
          <mxGeometry x="570" y="1340" width="100" height="30" as="geometry" />
        </mxCell>
        <mxCell id="ZeMPfmyQv6SLFDz6TmZ5-49" value="" style="edgeStyle=orthogonalEdgeStyle;rounded=0;orthogonalLoop=1;jettySize=auto;html=1;fontSize=18;exitX=0.813;exitY=0;exitDx=0;exitDy=0;exitPerimeter=0;" edge="1" parent="WIyWlLk6GJQsqaUBKTNV-1">
          <mxGeometry relative="1" as="geometry">
            <mxPoint x="539" y="1519.08" as="sourcePoint" />
            <mxPoint x="694" y="1519.1428571428569" as="targetPoint" />
            <Array as="points">
              <mxPoint x="574" y="1519" />
              <mxPoint x="574" y="1519" />
            </Array>
          </mxGeometry>
        </mxCell>
        <mxCell id="ZeMPfmyQv6SLFDz6TmZ5-50" value="" style="edgeStyle=orthogonalEdgeStyle;rounded=0;orthogonalLoop=1;jettySize=auto;html=1;fontSize=18;exitX=0.813;exitY=0;exitDx=0;exitDy=0;exitPerimeter=0;" edge="1" parent="WIyWlLk6GJQsqaUBKTNV-1">
          <mxGeometry relative="1" as="geometry">
            <mxPoint x="539" y="1519.08" as="sourcePoint" />
            <mxPoint x="694" y="1519.1428571428569" as="targetPoint" />
            <Array as="points">
              <mxPoint x="574" y="1519" />
              <mxPoint x="574" y="1519" />
            </Array>
          </mxGeometry>
        </mxCell>
        <mxCell id="ZeMPfmyQv6SLFDz6TmZ5-51" value="" style="line;strokeWidth=2;direction=south;html=1;fontSize=18;" vertex="1" parent="WIyWlLk6GJQsqaUBKTNV-1">
          <mxGeometry x="535" y="1389" width="10" height="280" as="geometry" />
        </mxCell>
        <mxCell id="ZeMPfmyQv6SLFDz6TmZ5-52" value="" style="line;strokeWidth=2;direction=south;html=1;fontSize=18;" vertex="1" parent="WIyWlLk6GJQsqaUBKTNV-1">
          <mxGeometry x="535" y="1389" width="10" height="280" as="geometry" />
        </mxCell>
        <mxCell id="ZeMPfmyQv6SLFDz6TmZ5-53" value="mode:edit" style="text;html=1;align=center;verticalAlign=middle;resizable=0;points=[];autosize=1;fontSize=18;" vertex="1" parent="WIyWlLk6GJQsqaUBKTNV-1">
          <mxGeometry x="580" y="1484" width="90" height="30" as="geometry" />
        </mxCell>
        <mxCell id="ZeMPfmyQv6SLFDz6TmZ5-54" value="mode:edit" style="text;html=1;align=center;verticalAlign=middle;resizable=0;points=[];autosize=1;fontSize=18;" vertex="1" parent="WIyWlLk6GJQsqaUBKTNV-1">
          <mxGeometry x="580" y="1484" width="90" height="30" as="geometry" />
        </mxCell>
        <mxCell id="ZeMPfmyQv6SLFDz6TmZ5-55" value="编辑" style="shape=note;whiteSpace=wrap;html=1;backgroundOutline=1;darkOpacity=0.05;fontSize=18;" vertex="1" parent="WIyWlLk6GJQsqaUBKTNV-1">
          <mxGeometry x="695" y="1469" width="80" height="100" as="geometry" />
        </mxCell>
        <mxCell id="ZeMPfmyQv6SLFDz6TmZ5-56" value="编辑" style="shape=note;whiteSpace=wrap;html=1;backgroundOutline=1;darkOpacity=0.05;fontSize=18;" vertex="1" parent="WIyWlLk6GJQsqaUBKTNV-1">
          <mxGeometry x="695" y="1469" width="80" height="100" as="geometry" />
        </mxCell>
        <mxCell id="ZeMPfmyQv6SLFDz6TmZ5-57" value="添加" style="shape=note;whiteSpace=wrap;html=1;backgroundOutline=1;darkOpacity=0.05;fontSize=18;" vertex="1" parent="WIyWlLk6GJQsqaUBKTNV-1">
          <mxGeometry x="697" y="1599" width="80" height="100" as="geometry" />
        </mxCell>
        <mxCell id="ZeMPfmyQv6SLFDz6TmZ5-58" value="添加" style="shape=note;whiteSpace=wrap;html=1;backgroundOutline=1;darkOpacity=0.05;fontSize=18;" vertex="1" parent="WIyWlLk6GJQsqaUBKTNV-1">
          <mxGeometry x="697" y="1599" width="80" height="100" as="geometry" />
        </mxCell>
        <mxCell id="ZeMPfmyQv6SLFDz6TmZ5-59" value="" style="edgeStyle=orthogonalEdgeStyle;rounded=0;orthogonalLoop=1;jettySize=auto;html=1;fontSize=18;exitX=0.813;exitY=0;exitDx=0;exitDy=0;exitPerimeter=0;" edge="1" parent="WIyWlLk6GJQsqaUBKTNV-1">
          <mxGeometry relative="1" as="geometry">
            <mxPoint x="540" y="1669" as="sourcePoint" />
            <mxPoint x="695" y="1669.062857142857" as="targetPoint" />
            <Array as="points">
              <mxPoint x="575" y="1668.92" />
              <mxPoint x="575" y="1668.92" />
            </Array>
          </mxGeometry>
        </mxCell>
        <mxCell id="ZeMPfmyQv6SLFDz6TmZ5-60" value="" style="edgeStyle=orthogonalEdgeStyle;rounded=0;orthogonalLoop=1;jettySize=auto;html=1;fontSize=18;exitX=0.813;exitY=0;exitDx=0;exitDy=0;exitPerimeter=0;" edge="1" parent="WIyWlLk6GJQsqaUBKTNV-1">
          <mxGeometry relative="1" as="geometry">
            <mxPoint x="540" y="1669" as="sourcePoint" />
            <mxPoint x="695" y="1669.062857142857" as="targetPoint" />
            <Array as="points">
              <mxPoint x="575" y="1668.92" />
              <mxPoint x="575" y="1668.92" />
            </Array>
          </mxGeometry>
        </mxCell>
        <mxCell id="ZeMPfmyQv6SLFDz6TmZ5-61" value="&lt;meta charset=&quot;utf-8&quot;&gt;&lt;span style=&quot;color: rgb(0, 0, 0); font-family: helvetica; font-size: 18px; font-style: normal; font-weight: 400; letter-spacing: normal; text-align: center; text-indent: 0px; text-transform: none; word-spacing: 0px; background-color: rgb(248, 249, 250); display: inline; float: none;&quot;&gt;mode:add&lt;/span&gt;" style="text;whiteSpace=wrap;html=1;fontSize=18;" vertex="1" parent="WIyWlLk6GJQsqaUBKTNV-1">
          <mxGeometry x="580" y="1619" width="110" height="40" as="geometry" />
        </mxCell>
        <mxCell id="ZeMPfmyQv6SLFDz6TmZ5-62" value="&lt;meta charset=&quot;utf-8&quot;&gt;&lt;span style=&quot;color: rgb(0, 0, 0); font-family: helvetica; font-size: 18px; font-style: normal; font-weight: 400; letter-spacing: normal; text-align: center; text-indent: 0px; text-transform: none; word-spacing: 0px; background-color: rgb(248, 249, 250); display: inline; float: none;&quot;&gt;mode:add&lt;/span&gt;" style="text;whiteSpace=wrap;html=1;fontSize=18;" vertex="1" parent="WIyWlLk6GJQsqaUBKTNV-1">
          <mxGeometry x="580" y="1619" width="110" height="40" as="geometry" />
        </mxCell>
        <mxCell id="ZeMPfmyQv6SLFDz6TmZ5-63" value="" style="shape=partialRectangle;whiteSpace=wrap;html=1;bottom=1;right=1;left=1;top=0;fillColor=none;routingCenterX=-0.5;fontSize=18;direction=north;" vertex="1" parent="WIyWlLk6GJQsqaUBKTNV-1">
          <mxGeometry x="780" y="1394" width="70" height="120" as="geometry" />
        </mxCell>
        <mxCell id="ZeMPfmyQv6SLFDz6TmZ5-64" value="" style="shape=partialRectangle;whiteSpace=wrap;html=1;bottom=1;right=1;left=1;top=0;fillColor=none;routingCenterX=-0.5;fontSize=18;direction=north;" vertex="1" parent="WIyWlLk6GJQsqaUBKTNV-1">
          <mxGeometry x="780" y="1394" width="70" height="120" as="geometry" />
        </mxCell>
        <mxCell id="ZeMPfmyQv6SLFDz6TmZ5-65" value="" style="edgeStyle=orthogonalEdgeStyle;rounded=0;orthogonalLoop=1;jettySize=auto;html=1;fontSize=18;" edge="1" parent="WIyWlLk6GJQsqaUBKTNV-1" source="ZeMPfmyQv6SLFDz6TmZ5-67" target="ZeMPfmyQv6SLFDz6TmZ5-63">
          <mxGeometry relative="1" as="geometry">
            <Array as="points">
              <mxPoint x="1260" y="1454" />
              <mxPoint x="1260" y="1454" />
            </Array>
          </mxGeometry>
        </mxCell>
        <mxCell id="ZeMPfmyQv6SLFDz6TmZ5-66" value="" style="edgeStyle=orthogonalEdgeStyle;rounded=0;orthogonalLoop=1;jettySize=auto;html=1;fontSize=18;" edge="1" parent="WIyWlLk6GJQsqaUBKTNV-1" target="ZeMPfmyQv6SLFDz6TmZ5-64">
          <mxGeometry relative="1" as="geometry">
            <mxPoint x="980" y="1454.5" as="sourcePoint" />
          </mxGeometry>
        </mxCell>
        <mxCell id="ZeMPfmyQv6SLFDz6TmZ5-67" value="历史数据" style="shape=cylinder;whiteSpace=wrap;html=1;boundedLbl=1;backgroundOutline=1;fontSize=18;fillColor=none;" vertex="1" parent="WIyWlLk6GJQsqaUBKTNV-1">
          <mxGeometry x="1540" y="1431" width="80" height="115" as="geometry" />
        </mxCell>
        <mxCell id="ZeMPfmyQv6SLFDz6TmZ5-68" value="" style="edgeStyle=orthogonalEdgeStyle;rounded=0;orthogonalLoop=1;jettySize=auto;html=1;fontSize=18;entryX=0.5;entryY=0;entryDx=0;entryDy=0;" edge="1" parent="WIyWlLk6GJQsqaUBKTNV-1" source="ZeMPfmyQv6SLFDz6TmZ5-70" target="ZeMPfmyQv6SLFDz6TmZ5-39">
          <mxGeometry relative="1" as="geometry">
            <mxPoint x="638.5" y="840" as="targetPoint" />
          </mxGeometry>
        </mxCell>
        <mxCell id="ZeMPfmyQv6SLFDz6TmZ5-69" value="" style="edgeStyle=orthogonalEdgeStyle;rounded=0;orthogonalLoop=1;jettySize=auto;html=1;fontSize=18;entryX=0.5;entryY=0;entryDx=0;entryDy=0;" edge="1" parent="WIyWlLk6GJQsqaUBKTNV-1" source="ZeMPfmyQv6SLFDz6TmZ5-71" target="ZeMPfmyQv6SLFDz6TmZ5-40">
          <mxGeometry relative="1" as="geometry">
            <mxPoint x="638.5" y="840" as="targetPoint" />
          </mxGeometry>
        </mxCell>
        <mxCell id="ZeMPfmyQv6SLFDz6TmZ5-70" value="&lt;span style=&quot;font-size: 18px&quot;&gt;拖拽&lt;/span&gt;" style="rounded=1;whiteSpace=wrap;html=1;fillColor=#dae8fc;strokeColor=#6c8ebf;" vertex="1" parent="WIyWlLk6GJQsqaUBKTNV-1">
          <mxGeometry x="553.5" y="700" width="170" height="60" as="geometry" />
        </mxCell>
        <mxCell id="ZeMPfmyQv6SLFDz6TmZ5-71" value="&lt;span style=&quot;font-size: 18px&quot;&gt;拖拽&lt;/span&gt;" style="rounded=1;whiteSpace=wrap;html=1;fillColor=#dae8fc;strokeColor=#6c8ebf;" vertex="1" parent="WIyWlLk6GJQsqaUBKTNV-1">
          <mxGeometry x="553.5" y="700" width="170" height="60" as="geometry" />
        </mxCell>
        <mxCell id="ZeMPfmyQv6SLFDz6TmZ5-72" value="渲染config" style="rounded=1;whiteSpace=wrap;html=1;fontSize=18;" vertex="1" parent="WIyWlLk6GJQsqaUBKTNV-1">
          <mxGeometry x="790" y="438" width="120" height="60" as="geometry" />
        </mxCell>
        <mxCell id="ZeMPfmyQv6SLFDz6TmZ5-73" value="渲染config" style="rounded=1;whiteSpace=wrap;html=1;fontSize=18;" vertex="1" parent="WIyWlLk6GJQsqaUBKTNV-1">
          <mxGeometry x="790" y="438" width="120" height="60" as="geometry" />
        </mxCell>
        <mxCell id="ZeMPfmyQv6SLFDz6TmZ5-74" value="" style="edgeStyle=orthogonalEdgeStyle;rounded=0;orthogonalLoop=1;jettySize=auto;html=1;fontSize=18;" edge="1" parent="WIyWlLk6GJQsqaUBKTNV-1" target="ZeMPfmyQv6SLFDz6TmZ5-76">
          <mxGeometry relative="1" as="geometry">
            <mxPoint x="1580" y="1651" as="sourcePoint" />
          </mxGeometry>
        </mxCell>
        <mxCell id="ZeMPfmyQv6SLFDz6TmZ5-75" value="save" style="text;html=1;align=center;verticalAlign=middle;resizable=0;points=[];autosize=1;fontSize=18;" vertex="1" parent="WIyWlLk6GJQsqaUBKTNV-1">
          <mxGeometry x="1183" y="1619" width="50" height="30" as="geometry" />
        </mxCell>
        <mxCell id="ZeMPfmyQv6SLFDz6TmZ5-76" value="json_schema" style="shape=cylinder;whiteSpace=wrap;html=1;boundedLbl=1;backgroundOutline=1;fontSize=18;" vertex="1" parent="WIyWlLk6GJQsqaUBKTNV-1">
          <mxGeometry x="1770" y="1546" width="150" height="210" as="geometry" />
        </mxCell>
        <mxCell id="ZeMPfmyQv6SLFDz6TmZ5-77" value="Link.vue" style="shape=tape;whiteSpace=wrap;html=1;strokeWidth=2;size=0.19;fontSize=18;fillColor=#dae8fc;strokeColor=#6c8ebf;" vertex="1" parent="WIyWlLk6GJQsqaUBKTNV-1">
          <mxGeometry x="-490" y="908" width="150" height="80" as="geometry" />
        </mxCell>
        <mxCell id="ZeMPfmyQv6SLFDz6TmZ5-78" style="edgeStyle=orthogonalEdgeStyle;rounded=0;orthogonalLoop=1;jettySize=auto;html=1;fontSize=18;exitX=1.002;exitY=0.781;exitDx=0;exitDy=0;exitPerimeter=0;" edge="1" parent="WIyWlLk6GJQsqaUBKTNV-1" source="ZeMPfmyQv6SLFDz6TmZ5-4" target="ZeMPfmyQv6SLFDz6TmZ5-67">
          <mxGeometry relative="1" as="geometry">
            <mxPoint x="1630" y="1537" as="targetPoint" />
            <mxPoint x="1260" y="1650" as="sourcePoint" />
            <Array as="points">
              <mxPoint x="1580" y="1650" />
            </Array>
          </mxGeometry>
        </mxCell>
        <mxCell id="ZeMPfmyQv6SLFDz6TmZ5-79" value="property" style="whiteSpace=wrap;html=1;fontSize=18;strokeColor=#6c8ebf;strokeWidth=2;fillColor=#dae8fc;" vertex="1" parent="WIyWlLk6GJQsqaUBKTNV-1">
          <mxGeometry x="-150" y="918" width="120" height="60" as="geometry" />
        </mxCell>
        <mxCell id="ZeMPfmyQv6SLFDz6TmZ5-80" value="" style="line;strokeWidth=2;html=1;fontSize=18;" vertex="1" parent="WIyWlLk6GJQsqaUBKTNV-1">
          <mxGeometry x="536" y="1384" width="160" height="10" as="geometry" />
        </mxCell>
        <mxCell id="ZeMPfmyQv6SLFDz6TmZ5-81" value="" style="line;strokeWidth=2;html=1;fontSize=18;" vertex="1" parent="WIyWlLk6GJQsqaUBKTNV-1">
          <mxGeometry x="536" y="1384" width="160" height="10" as="geometry" />
        </mxCell>
        <mxCell id="ZeMPfmyQv6SLFDz6TmZ5-82" value="&lt;font style=&quot;font-size: 25px&quot;&gt;文字&lt;br&gt;&lt;br&gt;图片&lt;br&gt;&lt;br&gt;按钮&lt;br&gt;&lt;br&gt;表单&lt;br&gt;&lt;br&gt;发券&lt;br&gt;&lt;br&gt;轮播图&lt;br&gt;&lt;/font&gt;" style="text;html=1;align=center;verticalAlign=middle;resizable=0;points=[];autosize=1;fontSize=18;" vertex="1" parent="WIyWlLk6GJQsqaUBKTNV-1">
          <mxGeometry x="-870" y="807" width="90" height="270" as="geometry" />
        </mxCell>
        <mxCell id="ZeMPfmyQv6SLFDz6TmZ5-83" value="" style="shape=curlyBracket;whiteSpace=wrap;html=1;rounded=1;fontSize=18;direction=west;" vertex="1" parent="WIyWlLk6GJQsqaUBKTNV-1">
          <mxGeometry x="-750" y="775" width="70" height="346" as="geometry" />
        </mxCell>
        <mxCell id="ZeMPfmyQv6SLFDz6TmZ5-84" value="" style="shape=singleArrow;whiteSpace=wrap;html=1;fontSize=18;" vertex="1" parent="WIyWlLk6GJQsqaUBKTNV-1">
          <mxGeometry x="-660" y="933" width="150" height="30" as="geometry" />
        </mxCell>
        <mxCell id="ZeMPfmyQv6SLFDz6TmZ5-85" value="@input&amp;nbsp; &amp;nbsp; &amp;nbsp;&lt;br&gt;:value" style="text;html=1;align=center;verticalAlign=middle;resizable=0;points=[];autosize=1;fontSize=18;" vertex="1" parent="WIyWlLk6GJQsqaUBKTNV-1">
          <mxGeometry x="-285" y="898" width="100" height="50" as="geometry" />
        </mxCell>
        <mxCell id="ZeMPfmyQv6SLFDz6TmZ5-86" value="" style="endArrow=classic;startArrow=classic;html=1;fontSize=18;" edge="1" parent="WIyWlLk6GJQsqaUBKTNV-1">
          <mxGeometry width="50" height="50" relative="1" as="geometry">
            <mxPoint x="-320" y="948.0000000000018" as="sourcePoint" />
            <mxPoint x="-170" y="948.0000000000018" as="targetPoint" />
          </mxGeometry>
        </mxCell>
        <mxCell id="ZeMPfmyQv6SLFDz6TmZ5-87" value="更新配置" style="text;html=1;align=center;verticalAlign=middle;resizable=0;points=[];autosize=1;fontSize=18;" vertex="1" parent="WIyWlLk6GJQsqaUBKTNV-1">
          <mxGeometry x="-285" y="958" width="90" height="30" as="geometry" />
        </mxCell>
        <mxCell id="ZeMPfmyQv6SLFDz6TmZ5-88" value="购买链接" style="rounded=1;whiteSpace=wrap;html=1;fontSize=18;fillColor=#e1d5e7;strokeColor=#9673a6;" vertex="1" parent="WIyWlLk6GJQsqaUBKTNV-1">
          <mxGeometry x="-555" y="495" width="120" height="60" as="geometry" />
        </mxCell>
        <mxCell id="ZeMPfmyQv6SLFDz6TmZ5-89" value="直达链接" style="rounded=1;whiteSpace=wrap;html=1;fontSize=18;fillColor=#e1d5e7;strokeColor=#9673a6;" vertex="1" parent="WIyWlLk6GJQsqaUBKTNV-1">
          <mxGeometry x="-555" y="606" width="120" height="60" as="geometry" />
        </mxCell>
        <mxCell id="ZeMPfmyQv6SLFDz6TmZ5-90" value="手写值" style="rounded=1;whiteSpace=wrap;html=1;fontSize=18;fillColor=#e1d5e7;strokeColor=#9673a6;" vertex="1" parent="WIyWlLk6GJQsqaUBKTNV-1">
          <mxGeometry x="-365" y="555" width="120" height="60" as="geometry" />
        </mxCell>
        <mxCell id="ZeMPfmyQv6SLFDz6TmZ5-91" value="自动生成" style="rounded=1;whiteSpace=wrap;html=1;fontSize=18;fillColor=#e1d5e7;strokeColor=#9673a6;" vertex="1" parent="WIyWlLk6GJQsqaUBKTNV-1">
          <mxGeometry x="-365" y="666" width="120" height="60" as="geometry" />
        </mxCell>
        <mxCell id="ZeMPfmyQv6SLFDz6TmZ5-92" value="" style="strokeWidth=2;html=1;shape=mxgraph.flowchart.annotation_2;align=left;labelPosition=right;pointerEvents=1;fontSize=18;" vertex="1" parent="WIyWlLk6GJQsqaUBKTNV-1">
          <mxGeometry x="-435" y="575" width="70" height="140" as="geometry" />
        </mxCell>
        <mxCell id="ZeMPfmyQv6SLFDz6TmZ5-93" value="" style="html=1;shadow=0;dashed=0;align=center;verticalAlign=middle;shape=mxgraph.arrows2.arrow;dy=0.6;dx=40;direction=south;notch=0;fontSize=18;" vertex="1" parent="WIyWlLk6GJQsqaUBKTNV-1">
          <mxGeometry x="-440" y="783" width="30" height="110" as="geometry" />
        </mxCell>
        <mxCell id="ZeMPfmyQv6SLFDz6TmZ5-94" value="" style="edgeStyle=orthogonalEdgeStyle;rounded=0;orthogonalLoop=1;jettySize=auto;html=1;fontSize=18;" edge="1" parent="WIyWlLk6GJQsqaUBKTNV-1" source="ZeMPfmyQv6SLFDz6TmZ5-95" target="ZeMPfmyQv6SLFDz6TmZ5-101">
          <mxGeometry relative="1" as="geometry" />
        </mxCell>
        <mxCell id="ZeMPfmyQv6SLFDz6TmZ5-95" value="link组件shopping&lt;br&gt;配置config" style="whiteSpace=wrap;html=1;fontSize=18;strokeColor=#d6b656;strokeWidth=2;fillColor=#fff2cc;" vertex="1" parent="WIyWlLk6GJQsqaUBKTNV-1">
          <mxGeometry x="140" y="920" width="230" height="60" as="geometry" />
        </mxCell>
        <mxCell id="ZeMPfmyQv6SLFDz6TmZ5-96" value="" style="endArrow=classic;startArrow=classic;html=1;fontSize=18;" edge="1" parent="WIyWlLk6GJQsqaUBKTNV-1">
          <mxGeometry width="50" height="50" relative="1" as="geometry">
            <mxPoint x="-30" y="948.0000000000018" as="sourcePoint" />
            <mxPoint x="130" y="948.0000000000018" as="targetPoint" />
            <Array as="points">
              <mxPoint x="20" y="948" />
            </Array>
          </mxGeometry>
        </mxCell>
        <mxCell id="ZeMPfmyQv6SLFDz6TmZ5-97" value="" style="endArrow=classic;startArrow=classic;html=1;fontSize=18;" edge="1" parent="WIyWlLk6GJQsqaUBKTNV-1">
          <mxGeometry width="50" height="50" relative="1" as="geometry">
            <mxPoint x="381.99999999999636" y="952" as="sourcePoint" />
            <mxPoint x="545.5" y="951.8299999999999" as="targetPoint" />
          </mxGeometry>
        </mxCell>
        <mxCell id="ZeMPfmyQv6SLFDz6TmZ5-98" value="Module" style="whiteSpace=wrap;html=1;fontSize=18;strokeColor=#6c8ebf;strokeWidth=2;fillColor=#dae8fc;" vertex="1" parent="WIyWlLk6GJQsqaUBKTNV-1">
          <mxGeometry x="890" y="920" width="120" height="60" as="geometry" />
        </mxCell>
        <mxCell id="ZeMPfmyQv6SLFDz6TmZ5-99" value="" style="endArrow=classic;startArrow=classic;html=1;fontSize=18;" edge="1" parent="WIyWlLk6GJQsqaUBKTNV-1">
          <mxGeometry width="50" height="50" relative="1" as="geometry">
            <mxPoint x="720" y="946.9899999999998" as="sourcePoint" />
            <mxPoint x="883.5" y="946.8199999999997" as="targetPoint" />
          </mxGeometry>
        </mxCell>
        <mxCell id="ZeMPfmyQv6SLFDz6TmZ5-100" value="渲染property" style="whiteSpace=wrap;html=1;fontSize=18;strokeColor=#6c8ebf;strokeWidth=2;fillColor=#dae8fc;" vertex="1" parent="WIyWlLk6GJQsqaUBKTNV-1">
          <mxGeometry x="1190" y="920" width="180" height="60" as="geometry" />
        </mxCell>
        <mxCell id="ZeMPfmyQv6SLFDz6TmZ5-101" value="点击送审出toast：文本框标红+自动生成是否可点击+错误信息展示" style="whiteSpace=wrap;html=1;fontSize=18;strokeColor=#d6b656;strokeWidth=2;fillColor=#fff2cc;" vertex="1" parent="WIyWlLk6GJQsqaUBKTNV-1">
          <mxGeometry x="80" y="720" width="350" height="90" as="geometry" />
        </mxCell>
        <mxCell id="ZeMPfmyQv6SLFDz6TmZ5-102" value="" style="edgeStyle=orthogonalEdgeStyle;rounded=0;orthogonalLoop=1;jettySize=auto;html=1;fontSize=18;" edge="1" parent="WIyWlLk6GJQsqaUBKTNV-1" source="ZeMPfmyQv6SLFDz6TmZ5-103" target="ZeMPfmyQv6SLFDz6TmZ5-95">
          <mxGeometry relative="1" as="geometry" />
        </mxCell>
        <mxCell id="ZeMPfmyQv6SLFDz6TmZ5-103" value="交互事件，校验信息配置" style="whiteSpace=wrap;html=1;fontSize=18;strokeColor=#d6b656;strokeWidth=2;fillColor=#fff2cc;" vertex="1" parent="WIyWlLk6GJQsqaUBKTNV-1">
          <mxGeometry x="140" y="1080" width="230" height="60" as="geometry" />
        </mxCell>
        <mxCell id="ZeMPfmyQv6SLFDz6TmZ5-104" value="" style="endArrow=classic;startArrow=classic;html=1;fontSize=18;entryX=0.453;entryY=1.05;entryDx=0;entryDy=0;entryPerimeter=0;" edge="1" parent="WIyWlLk6GJQsqaUBKTNV-1" target="ZeMPfmyQv6SLFDz6TmZ5-90">
          <mxGeometry width="50" height="50" relative="1" as="geometry">
            <mxPoint x="-310" y="666" as="sourcePoint" />
            <mxPoint x="-260" y="616" as="targetPoint" />
            <Array as="points" />
          </mxGeometry>
        </mxCell>
        <mxCell id="ZeMPfmyQv6SLFDz6TmZ5-105" value="点击生成直达链接，相互转换" style="edgeLabel;html=1;align=center;verticalAlign=middle;resizable=0;points=[];fontSize=18;" connectable="0" vertex="1" parent="ZeMPfmyQv6SLFDz6TmZ5-104">
          <mxGeometry x="0.1298" y="-4" relative="1" as="geometry">
            <mxPoint x="136.37" y="6.55" as="offset" />
          </mxGeometry>
        </mxCell>
        <mxCell id="ZeMPfmyQv6SLFDz6TmZ5-106" value="&lt;span&gt;value:根据是否是url来判断&lt;/span&gt;&lt;br&gt;&lt;span&gt;url赋值给shopValue字段&lt;/span&gt;&lt;br&gt;&lt;span&gt;非url赋值给directLinkValue字段&lt;/span&gt;" style="shape=callout;whiteSpace=wrap;html=1;perimeter=calloutPerimeter;fontSize=18;position2=0.05;size=20;position=0.1;base=10;" vertex="1" parent="WIyWlLk6GJQsqaUBKTNV-1">
          <mxGeometry x="1560" y="1302" width="290" height="115" as="geometry" />
        </mxCell>
        <mxCell id="ZeMPfmyQv6SLFDz6TmZ5-107" value="" style="endArrow=classic;startArrow=classic;html=1;fontSize=18;" edge="1" parent="WIyWlLk6GJQsqaUBKTNV-1">
          <mxGeometry width="50" height="50" relative="1" as="geometry">
            <mxPoint x="1020" y="949.340000000002" as="sourcePoint" />
            <mxPoint x="1183.5" y="949.1700000000001" as="targetPoint" />
          </mxGeometry>
        </mxCell>
        <mxCell id="ZeMPfmyQv6SLFDz6TmZ5-108" value="Link组件" style="whiteSpace=wrap;html=1;fontSize=18;strokeColor=#6c8ebf;strokeWidth=2;fillColor=#dae8fc;" vertex="1" parent="WIyWlLk6GJQsqaUBKTNV-1">
          <mxGeometry x="1550" y="918" width="180" height="60" as="geometry" />
        </mxCell>
        <mxCell id="ZeMPfmyQv6SLFDz6TmZ5-109" value="" style="endArrow=classic;startArrow=classic;html=1;fontSize=18;" edge="1" parent="WIyWlLk6GJQsqaUBKTNV-1">
          <mxGeometry width="50" height="50" relative="1" as="geometry">
            <mxPoint x="1376.5" y="949.75" as="sourcePoint" />
            <mxPoint x="1540" y="949.5799999999999" as="targetPoint" />
          </mxGeometry>
        </mxCell>
        <mxCell id="ZeMPfmyQv6SLFDz6TmZ5-110" value="Actor" style="shape=umlActor;verticalLabelPosition=bottom;verticalAlign=top;html=1;outlineConnect=0;fontSize=18;" vertex="1" parent="WIyWlLk6GJQsqaUBKTNV-1">
          <mxGeometry x="1090" y="1384" width="30" height="60" as="geometry" />
        </mxCell>
        <mxCell id="ZeMPfmyQv6SLFDz6TmZ5-111" value="" style="edgeStyle=orthogonalEdgeStyle;rounded=0;orthogonalLoop=1;jettySize=auto;html=1;fontSize=18;" edge="1" parent="WIyWlLk6GJQsqaUBKTNV-1" source="ZeMPfmyQv6SLFDz6TmZ5-112" target="ZeMPfmyQv6SLFDz6TmZ5-113">
          <mxGeometry relative="1" as="geometry" />
        </mxCell>
        <mxCell id="ZeMPfmyQv6SLFDz6TmZ5-112" value="在编辑或复制页面时劫持数据库里面的&lt;br&gt;docData,对其改造，添加上新增property和config" style="text;html=1;align=center;verticalAlign=middle;resizable=0;points=[];autosize=1;fontSize=18;" vertex="1" parent="WIyWlLk6GJQsqaUBKTNV-1">
          <mxGeometry x="1120" y="1389" width="400" height="50" as="geometry" />
        </mxCell>
        <mxCell id="ZeMPfmyQv6SLFDz6TmZ5-113" value="历史数据兼容" style="ellipse;shape=cloud;whiteSpace=wrap;html=1;fontSize=18;" vertex="1" parent="WIyWlLk6GJQsqaUBKTNV-1">
          <mxGeometry x="1010" y="1190" width="230" height="120" as="geometry" />
        </mxCell>
        <mxCell id="ZeMPfmyQv6SLFDz6TmZ5-114" value="&lt;font style=&quot;font-size: 53px&quot;&gt;淘系直达链接的数据流图&lt;/font&gt;" style="text;html=1;align=center;verticalAlign=middle;resizable=0;points=[];autosize=1;fontSize=18;" vertex="1" parent="WIyWlLk6GJQsqaUBKTNV-1">
          <mxGeometry x="-880" y="110" width="600" height="40" as="geometry" />
        </mxCell>
        <mxCell id="ZeMPfmyQv6SLFDz6TmZ5-115" value="" style="rounded=1;arcSize=10;dashed=1;dashPattern=8 3 1 3;strokeWidth=2;fontSize=18;fillColor=none;" vertex="1" parent="WIyWlLk6GJQsqaUBKTNV-1">
          <mxGeometry x="2051" y="430" width="1150" height="1010" as="geometry" />
        </mxCell>
        <mxCell id="ZeMPfmyQv6SLFDz6TmZ5-116" value="" style="edgeStyle=orthogonalEdgeStyle;rounded=0;orthogonalLoop=1;jettySize=auto;html=1;strokeColor=#857135;" edge="1" parent="WIyWlLk6GJQsqaUBKTNV-1" source="ZeMPfmyQv6SLFDz6TmZ5-125" target="ZeMPfmyQv6SLFDz6TmZ5-118">
          <mxGeometry relative="1" as="geometry" />
        </mxCell>
        <mxCell id="ZeMPfmyQv6SLFDz6TmZ5-117" value="" style="edgeStyle=orthogonalEdgeStyle;rounded=0;orthogonalLoop=1;jettySize=auto;html=1;strokeColor=#857135;" edge="1" parent="WIyWlLk6GJQsqaUBKTNV-1" source="ZeMPfmyQv6SLFDz6TmZ5-125">
          <mxGeometry relative="1" as="geometry">
            <Array as="points">
              <mxPoint x="2240" y="948" />
              <mxPoint x="2240" y="1300" />
              <mxPoint x="2290" y="1300" />
            </Array>
            <mxPoint x="2290" y="1300" as="targetPoint" />
          </mxGeometry>
        </mxCell>
        <mxCell id="ZeMPfmyQv6SLFDz6TmZ5-118" value="表单" style="whiteSpace=wrap;html=1;fontSize=18;strokeColor=#ae4132;strokeWidth=2;fillColor=#fad9d5;" vertex="1" parent="WIyWlLk6GJQsqaUBKTNV-1">
          <mxGeometry x="2290" y="917" width="160" height="62" as="geometry" />
        </mxCell>
        <mxCell id="ZeMPfmyQv6SLFDz6TmZ5-119" value="" style="edgeStyle=orthogonalEdgeStyle;rounded=0;orthogonalLoop=1;jettySize=auto;html=1;strokeColor=#857135;" edge="1" parent="WIyWlLk6GJQsqaUBKTNV-1" source="ZeMPfmyQv6SLFDz6TmZ5-121">
          <mxGeometry relative="1" as="geometry">
            <mxPoint x="2080" y="948.0000000000018" as="targetPoint" />
          </mxGeometry>
        </mxCell>
        <mxCell id="ZeMPfmyQv6SLFDz6TmZ5-120" value="" style="edgeStyle=orthogonalEdgeStyle;rounded=0;orthogonalLoop=1;jettySize=auto;html=1;strokeColor=#857135;" edge="1" parent="WIyWlLk6GJQsqaUBKTNV-1" source="ZeMPfmyQv6SLFDz6TmZ5-121" target="ZeMPfmyQv6SLFDz6TmZ5-123">
          <mxGeometry relative="1" as="geometry" />
        </mxCell>
        <mxCell id="ZeMPfmyQv6SLFDz6TmZ5-121" value="保存或送审" style="whiteSpace=wrap;html=1;fontSize=18;strokeColor=#6c8ebf;strokeWidth=2;fillColor=#dae8fc;" vertex="1" parent="WIyWlLk6GJQsqaUBKTNV-1">
          <mxGeometry x="1840" y="918" width="120" height="60" as="geometry" />
        </mxCell>
        <mxCell id="ZeMPfmyQv6SLFDz6TmZ5-122" value="json_code" style="text;html=1;align=center;verticalAlign=middle;resizable=0;points=[];autosize=1;" vertex="1" parent="WIyWlLk6GJQsqaUBKTNV-1">
          <mxGeometry x="1980" y="920" width="70" height="20" as="geometry" />
        </mxCell>
        <mxCell id="ZeMPfmyQv6SLFDz6TmZ5-123" value="toast校验提示" style="ellipse;whiteSpace=wrap;html=1;fontSize=18;strokeColor=#6c8ebf;strokeWidth=2;fillColor=#dae8fc;" vertex="1" parent="WIyWlLk6GJQsqaUBKTNV-1">
          <mxGeometry x="1810" y="760" width="180" height="78" as="geometry" />
        </mxCell>
        <mxCell id="ZeMPfmyQv6SLFDz6TmZ5-124" value="用户点击购买按钮，前端上&lt;br&gt;报shopping&amp;nbsp; +1" style="ellipse;whiteSpace=wrap;html=1;fontSize=18;strokeColor=#ae4132;strokeWidth=2;fillColor=#fad9d5;" vertex="1" parent="WIyWlLk6GJQsqaUBKTNV-1">
          <mxGeometry x="2560" y="951.5" width="280" height="80" as="geometry" />
        </mxCell>
        <mxCell id="ZeMPfmyQv6SLFDz6TmZ5-125" value="h5端&lt;br&gt;淘系直达链接" style="whiteSpace=wrap;html=1;fontSize=18;strokeColor=#b85450;strokeWidth=2;fillColor=#f8cecc;" vertex="1" parent="WIyWlLk6GJQsqaUBKTNV-1">
          <mxGeometry x="2090" y="918" width="120" height="60" as="geometry" />
        </mxCell>
        <mxCell id="ZeMPfmyQv6SLFDz6TmZ5-126" value="轮播图" style="whiteSpace=wrap;html=1;fontSize=18;strokeColor=#ae4132;strokeWidth=2;fillColor=#fad9d5;" vertex="1" parent="WIyWlLk6GJQsqaUBKTNV-1">
          <mxGeometry x="2293" y="790" width="160" height="62" as="geometry" />
        </mxCell>
        <mxCell id="ZeMPfmyQv6SLFDz6TmZ5-127" value="文本" style="whiteSpace=wrap;html=1;fontSize=18;strokeColor=#ae4132;strokeWidth=2;fillColor=#fad9d5;" vertex="1" parent="WIyWlLk6GJQsqaUBKTNV-1">
          <mxGeometry x="2293" y="1050" width="160" height="62" as="geometry" />
        </mxCell>
        <mxCell id="ZeMPfmyQv6SLFDz6TmZ5-128" value="按钮" style="whiteSpace=wrap;html=1;fontSize=18;strokeColor=#ae4132;strokeWidth=2;fillColor=#fad9d5;" vertex="1" parent="WIyWlLk6GJQsqaUBKTNV-1">
          <mxGeometry x="2293" y="650" width="160" height="62" as="geometry" />
        </mxCell>
        <mxCell id="ZeMPfmyQv6SLFDz6TmZ5-129" value="图片" style="whiteSpace=wrap;html=1;fontSize=18;strokeColor=#ae4132;strokeWidth=2;fillColor=#fad9d5;" vertex="1" parent="WIyWlLk6GJQsqaUBKTNV-1">
          <mxGeometry x="2293" y="1160" width="160" height="62" as="geometry" />
        </mxCell>
        <mxCell id="ZeMPfmyQv6SLFDz6TmZ5-130" value="发券" style="whiteSpace=wrap;html=1;fontSize=18;strokeColor=#ae4132;strokeWidth=2;fillColor=#fad9d5;" vertex="1" parent="WIyWlLk6GJQsqaUBKTNV-1">
          <mxGeometry x="2293" y="1270" width="160" height="62" as="geometry" />
        </mxCell>
        <mxCell id="ZeMPfmyQv6SLFDz6TmZ5-131" value="" style="endArrow=classic;html=1;exitX=1;exitY=0.5;exitDx=0;exitDy=0;entryX=0;entryY=0.5;entryDx=0;entryDy=0;" edge="1" parent="WIyWlLk6GJQsqaUBKTNV-1" source="ZeMPfmyQv6SLFDz6TmZ5-108" target="ZeMPfmyQv6SLFDz6TmZ5-121">
          <mxGeometry width="50" height="50" relative="1" as="geometry">
            <mxPoint x="1880" y="1070" as="sourcePoint" />
            <mxPoint x="1930" y="1020" as="targetPoint" />
          </mxGeometry>
        </mxCell>
        <mxCell id="ZeMPfmyQv6SLFDz6TmZ5-132" value="" style="endArrow=classic;html=1;fontFamily=Helvetica;fontSize=11;fontColor=#000000;align=center;strokeColor=#857135;" edge="1" parent="WIyWlLk6GJQsqaUBKTNV-1">
          <mxGeometry width="50" height="50" relative="1" as="geometry">
            <mxPoint x="2240" y="945" as="sourcePoint" />
            <mxPoint x="2293" y="686" as="targetPoint" />
            <Array as="points">
              <mxPoint x="2240" y="686" />
            </Array>
          </mxGeometry>
        </mxCell>
        <mxCell id="ZeMPfmyQv6SLFDz6TmZ5-133" value="" style="endArrow=classic;html=1;strokeColor=#857135;entryX=0;entryY=0.5;entryDx=0;entryDy=0;" edge="1" parent="WIyWlLk6GJQsqaUBKTNV-1" target="ZeMPfmyQv6SLFDz6TmZ5-127">
          <mxGeometry width="50" height="50" relative="1" as="geometry">
            <mxPoint x="2240" y="1081" as="sourcePoint" />
            <mxPoint x="2290" y="1000" as="targetPoint" />
          </mxGeometry>
        </mxCell>
        <mxCell id="ZeMPfmyQv6SLFDz6TmZ5-134" value="" style="endArrow=classic;html=1;strokeColor=#857135;entryX=0;entryY=0.5;entryDx=0;entryDy=0;" edge="1" parent="WIyWlLk6GJQsqaUBKTNV-1">
          <mxGeometry width="50" height="50" relative="1" as="geometry">
            <mxPoint x="2241" y="1190" as="sourcePoint" />
            <mxPoint x="2294" y="1190" as="targetPoint" />
          </mxGeometry>
        </mxCell>
        <mxCell id="ZeMPfmyQv6SLFDz6TmZ5-135" value="" style="endArrow=classic;html=1;strokeColor=#857135;entryX=0;entryY=0.5;entryDx=0;entryDy=0;" edge="1" parent="WIyWlLk6GJQsqaUBKTNV-1">
          <mxGeometry width="50" height="50" relative="1" as="geometry">
            <mxPoint x="2241" y="823.0000000000018" as="sourcePoint" />
            <mxPoint x="2294" y="823.0000000000018" as="targetPoint" />
          </mxGeometry>
        </mxCell>
        <mxCell id="ZeMPfmyQv6SLFDz6TmZ5-136" value="&lt;font style=&quot;font-size: 14px&quot;&gt;业务组件：ShopDirectLink.vue&lt;/font&gt;" style="rounded=1;whiteSpace=wrap;html=1;fillColor=#d0cee2;strokeColor=#56517e;" vertex="1" parent="WIyWlLk6GJQsqaUBKTNV-1">
          <mxGeometry x="-610" y="254" width="390" height="60" as="geometry" />
        </mxCell>
        <mxCell id="ZeMPfmyQv6SLFDz6TmZ5-137" value="" style="html=1;shadow=0;dashed=0;align=center;verticalAlign=middle;shape=mxgraph.arrows2.arrow;dy=0.6;dx=40;direction=south;notch=0;fontSize=18;" vertex="1" parent="WIyWlLk6GJQsqaUBKTNV-1">
          <mxGeometry x="-435" y="330" width="30" height="110" as="geometry" />
        </mxCell>
        <mxCell id="ZeMPfmyQv6SLFDz6TmZ5-138" value="1.数据校验" style="text;html=1;strokeColor=none;fillColor=none;align=center;verticalAlign=middle;whiteSpace=wrap;rounded=0;" vertex="1" parent="WIyWlLk6GJQsqaUBKTNV-1">
          <mxGeometry x="-523" y="353" width="70" height="20" as="geometry" />
        </mxCell>
        <mxCell id="ZeMPfmyQv6SLFDz6TmZ5-139" value="2.算法生成tbopen的链接" style="text;html=1;strokeColor=none;fillColor=none;align=center;verticalAlign=middle;whiteSpace=wrap;rounded=0;" vertex="1" parent="WIyWlLk6GJQsqaUBKTNV-1">
          <mxGeometry x="-390" y="353" width="90" height="20" as="geometry" />
        </mxCell>
        <mxCell id="ZeMPfmyQv6SLFDz6TmZ5-140" value="&lt;span style=&quot;font-size: 20px&quot;&gt;淘系直达链接 C端流程&lt;/span&gt;" style="text;html=1;strokeColor=none;fillColor=none;align=center;verticalAlign=middle;whiteSpace=wrap;rounded=0;" vertex="1" parent="WIyWlLk6GJQsqaUBKTNV-1">
          <mxGeometry x="2260" y="495" width="700" height="20" as="geometry" />
        </mxCell>
        <mxCell id="ZeMPfmyQv6SLFDz6TmZ5-141" value="" style="shape=curlyBracket;whiteSpace=wrap;html=1;rounded=1;flipH=1;" vertex="1" parent="WIyWlLk6GJQsqaUBKTNV-1">
          <mxGeometry x="2470" y="663" width="90" height="657" as="geometry" />
        </mxCell>
        <mxCell id="ZeMPfmyQv6SLFDz6TmZ5-142" value="" style="edgeStyle=orthogonalEdgeStyle;rounded=0;orthogonalLoop=1;jettySize=auto;html=1;strokeColor=#857135;" edge="1" parent="WIyWlLk6GJQsqaUBKTNV-1" source="ZeMPfmyQv6SLFDz6TmZ5-145" target="ZeMPfmyQv6SLFDz6TmZ5-147">
          <mxGeometry relative="1" as="geometry" />
        </mxCell>
        <mxCell id="ZeMPfmyQv6SLFDz6TmZ5-143" value="YES" style="edgeLabel;html=1;align=center;verticalAlign=middle;resizable=0;points=[];" vertex="1" connectable="0" parent="ZeMPfmyQv6SLFDz6TmZ5-142">
          <mxGeometry x="-0.2333" y="3" relative="1" as="geometry">
            <mxPoint as="offset" />
          </mxGeometry>
        </mxCell>
        <mxCell id="ZeMPfmyQv6SLFDz6TmZ5-144" value="NO" style="edgeStyle=orthogonalEdgeStyle;rounded=0;orthogonalLoop=1;jettySize=auto;html=1;strokeColor=#857135;" edge="1" parent="WIyWlLk6GJQsqaUBKTNV-1" source="ZeMPfmyQv6SLFDz6TmZ5-145" target="ZeMPfmyQv6SLFDz6TmZ5-148">
          <mxGeometry relative="1" as="geometry" />
        </mxCell>
        <mxCell id="ZeMPfmyQv6SLFDz6TmZ5-145" value="&lt;span style=&quot;font-size: 18px&quot;&gt;唤起app成功或者失败&lt;/span&gt;" style="html=1;whiteSpace=wrap;aspect=fixed;shape=isoRectangle;fillColor=#fad9d5;strokeColor=#ae4132;" vertex="1" parent="WIyWlLk6GJQsqaUBKTNV-1">
          <mxGeometry x="2890" y="918" width="233.33" height="140" as="geometry" />
        </mxCell>
        <mxCell id="ZeMPfmyQv6SLFDz6TmZ5-146" value="" style="endArrow=classic;html=1;strokeColor=#857135;exitX=1;exitY=0.5;exitDx=0;exitDy=0;" edge="1" parent="WIyWlLk6GJQsqaUBKTNV-1" source="ZeMPfmyQv6SLFDz6TmZ5-124">
          <mxGeometry width="50" height="50" relative="1" as="geometry">
            <mxPoint x="2840" y="1040" as="sourcePoint" />
            <mxPoint x="2890" y="990" as="targetPoint" />
          </mxGeometry>
        </mxCell>
        <mxCell id="ZeMPfmyQv6SLFDz6TmZ5-147" value="打开淘宝" style="whiteSpace=wrap;html=1;strokeColor=#ae4132;fillColor=#fad9d5;" vertex="1" parent="WIyWlLk6GJQsqaUBKTNV-1">
          <mxGeometry x="2946.665" y="1178" width="120" height="60" as="geometry" />
        </mxCell>
        <mxCell id="ZeMPfmyQv6SLFDz6TmZ5-148" value="跳转到网页链接" style="whiteSpace=wrap;html=1;strokeColor=#ae4132;fillColor=#fad9d5;" vertex="1" parent="WIyWlLk6GJQsqaUBKTNV-1">
          <mxGeometry x="2946.665" y="738" width="120" height="60" as="geometry" />
        </mxCell>
        <mxCell id="ZeMPfmyQv6SLFDz6TmZ5-149" value="&lt;span&gt;编写插件callUpAppUtil.js&lt;/span&gt;&lt;br&gt;&lt;span&gt;原理：&lt;/span&gt;&lt;br&gt;&lt;div&gt;编写定时器，如果app启动，浏览器最小化进入后台，则计时器存在推迟或者变慢的问题&lt;/div&gt;&lt;div&gt;那么代码执行到此处时，时间间隔必然大于设置的定时时间&lt;/div&gt;" style="shape=callout;rounded=1;whiteSpace=wrap;html=1;perimeter=calloutPerimeter;base=41;position2=0.81;size=40;position=0.64;" vertex="1" parent="WIyWlLk6GJQsqaUBKTNV-1">
          <mxGeometry x="2590" y="810" width="390" height="157" as="geometry" />
        </mxCell>
      </root>
    </mxGraphModel>
  </diagram>
</mxfile>
